<svg xmlns="http://www.w3.org/2000/svg" width="1em" height="1em" viewBox="0 0 32 32"><defs><linearGradient id="j" x1="11.563" x2="23.313" y1="21.852" y2="7.039" gradientUnits="userSpaceOnUse"><stop stop-color="#f19d48"/><stop offset="1" stop-color="#e89a44"/></linearGradient><linearGradient id="l" x1="16" x2="16" y1="2.445" y2="30.383" gradientUnits="userSpaceOnUse"><stop stop-color="#ffc444"/><stop offset="1" stop-color="#ffc24b"/></linearGradient><linearGradient id="o" x1="19.313" x2="18.906" y1="9.289" y2="9.906" gradientUnits="userSpaceOnUse"><stop offset=".459" stop-color="#ffca3f"/><stop offset="1" stop-color="#ffca3f" stop-opacity="0"/></linearGradient><linearGradient id="p" x1="10.531" x2="11.313" y1="15.059" y2="15.059" gradientUnits="userSpaceOnUse"><stop offset=".167" stop-color="#ffb33b"/><stop offset="1" stop-color="#ffc047"/></linearGradient><linearGradient id="q" x1="11.995" x2="11.609" y1="16.686" y2="16.686" gradientUnits="userSpaceOnUse"><stop offset=".067" stop-color="#ffc34c"/><stop offset="1" stop-color="#ffc34c" stop-opacity="0"/></linearGradient><linearGradient id="r" x1="13.75" x2="14.531" y1="15.059" y2="15.059" gradientUnits="userSpaceOnUse"><stop offset=".167" stop-color="#ffb33b"/><stop offset="1" stop-color="#ffc047"/></linearGradient><linearGradient id="s" x1="15.213" x2="14.828" y1="16.686" y2="16.686" gradientUnits="userSpaceOnUse"><stop offset=".067" stop-color="#ffc34c"/><stop offset="1" stop-color="#ffc34c" stop-opacity="0"/></linearGradient><linearGradient id="t" x1="16.969" x2="17.75" y1="15.059" y2="15.059" gradientUnits="userSpaceOnUse"><stop offset=".167" stop-color="#ffb33b"/><stop offset="1" stop-color="#ffc047"/></linearGradient><linearGradient id="u" x1="18.432" x2="18.047" y1="16.686" y2="16.686" gradientUnits="userSpaceOnUse"><stop offset=".067" stop-color="#ffc34c"/><stop offset="1" stop-color="#ffc34c" stop-opacity="0"/></linearGradient><linearGradient id="v" x1="20.188" x2="20.969" y1="15.059" y2="15.059" gradientUnits="userSpaceOnUse"><stop offset=".167" stop-color="#ffb33b"/><stop offset="1" stop-color="#ffc047"/></linearGradient><linearGradient id="w" x1="21.651" x2="21.266" y1="16.686" y2="16.686" gradientUnits="userSpaceOnUse"><stop offset=".067" stop-color="#ffc34c"/><stop offset="1" stop-color="#ffc34c" stop-opacity="0"/></linearGradient><filter id="i" width="22" height="22" x="4.875" y="5.539" color-interpolation-filters="sRGB" filterUnits="userSpaceOnUse"><feFlood flood-opacity="0" result="BackgroundImageFix"/><feBlend in="SourceGraphic" in2="BackgroundImageFix" result="shape"/><feColorMatrix in="SourceAlpha" result="hardAlpha" values="0 0 0 0 0 0 0 0 0 0 0 0 0 0 0 0 0 0 127 0"/><feOffset dx="-.25" dy=".25"/><feGaussianBlur stdDeviation=".5"/><feComposite in2="hardAlpha" k2="-1" k3="1" operator="arithmetic"/><feColorMatrix values="0 0 0 0 0.831373 0 0 0 0 0.45098 0 0 0 0 0.196078 0 0 0 1 0"/><feBlend in2="shape" result="effect1_innerShadow_18_21332"/></filter><filter id="k" width="28.538" height="28.538" x="1.731" y="2.145" color-interpolation-filters="sRGB" filterUnits="userSpaceOnUse"><feFlood flood-opacity="0" result="BackgroundImageFix"/><feBlend in="SourceGraphic" in2="BackgroundImageFix" result="shape"/><feColorMatrix in="SourceAlpha" result="hardAlpha" values="0 0 0 0 0 0 0 0 0 0 0 0 0 0 0 0 0 0 127 0"/><feOffset dx=".3" dy=".3"/><feGaussianBlur stdDeviation=".3"/><feComposite in2="hardAlpha" k2="-1" k3="1" operator="arithmetic"/><feColorMatrix values="0 0 0 0 0.886275 0 0 0 0 0.662745 0 0 0 0 0.235294 0 0 0 1 0"/><feBlend in2="shape" result="effect1_innerShadow_18_21332"/><feColorMatrix in="SourceAlpha" result="hardAlpha" values="0 0 0 0 0 0 0 0 0 0 0 0 0 0 0 0 0 0 127 0"/><feOffset dx=".3" dy="-.3"/><feGaussianBlur stdDeviation=".3"/><feComposite in2="hardAlpha" k2="-1" k3="1" operator="arithmetic"/><feColorMatrix values="0 0 0 0 0.956863 0 0 0 0 0.607843 0 0 0 0 0.294118 0 0 0 1 0"/><feBlend in2="effect1_innerShadow_18_21332" result="effect2_innerShadow_18_21332"/><feColorMatrix in="SourceAlpha" result="hardAlpha" values="0 0 0 0 0 0 0 0 0 0 0 0 0 0 0 0 0 0 127 0"/><feOffset dy="-.3"/><feGaussianBlur stdDeviation=".3"/><feComposite in2="hardAlpha" k2="-1" k3="1" operator="arithmetic"/><feColorMatrix values="0 0 0 0 0.956863 0 0 0 0 0.607843 0 0 0 0 0.294118 0 0 0 1 0"/><feBlend in2="effect2_innerShadow_18_21332" result="effect3_innerShadow_18_21332"/><feColorMatrix in="SourceAlpha" result="hardAlpha" values="0 0 0 0 0 0 0 0 0 0 0 0 0 0 0 0 0 0 127 0"/><feOffset dx="-.3" dy=".3"/><feGaussianBlur stdDeviation=".3"/><feComposite in2="hardAlpha" k2="-1" k3="1" operator="arithmetic"/><feColorMatrix values="0 0 0 0 1 0 0 0 0 0.882353 0 0 0 0 0.337255 0 0 0 1 0"/><feBlend in2="effect3_innerShadow_18_21332" result="effect4_innerShadow_18_21332"/></filter><filter id="m" width="14.651" height="15.959" x="8.362" y="7.172" color-interpolation-filters="sRGB" filterUnits="userSpaceOnUse"><feFlood flood-opacity="0" result="BackgroundImageFix"/><feBlend in="SourceGraphic" in2="BackgroundImageFix" result="shape"/><feGaussianBlur result="effect1_foregroundBlur_18_21332" stdDeviation=".3"/></filter><filter id="n" width="12.275" height="5.33" x="9.948" y="7.241" color-interpolation-filters="sRGB" filterUnits="userSpaceOnUse"><feFlood flood-opacity="0" result="BackgroundImageFix"/><feBlend in="SourceGraphic" in2="BackgroundImageFix" result="shape"/><feColorMatrix in="SourceAlpha" result="hardAlpha" values="0 0 0 0 0 0 0 0 0 0 0 0 0 0 0 0 0 0 127 0"/><feOffset dy="-.25"/><feGaussianBlur stdDeviation=".25"/><feComposite in2="hardAlpha" k2="-1" k3="1" operator="arithmetic"/><feColorMatrix values="0 0 0 0 0.980392 0 0 0 0 0.647059 0 0 0 0 0.172549 0 0 0 1 0"/><feBlend in2="shape" result="effect1_innerShadow_18_21332"/><feColorMatrix in="SourceAlpha" result="hardAlpha" values="0 0 0 0 0 0 0 0 0 0 0 0 0 0 0 0 0 0 127 0"/><feOffset dx=".15" dy=".25"/><feGaussianBlur stdDeviation=".25"/><feComposite in2="hardAlpha" k2="-1" k3="1" operator="arithmetic"/><feColorMatrix values="0 0 0 0 0.980392 0 0 0 0 0.647059 0 0 0 0 0.172549 0 0 0 1 0"/><feBlend in2="effect1_innerShadow_18_21332" result="effect2_innerShadow_18_21332"/></filter><filter id="x" width="13.951" height="2.836" x="9.024" y="19.664" color-interpolation-filters="sRGB" filterUnits="userSpaceOnUse"><feFlood flood-opacity="0" result="BackgroundImageFix"/><feBlend in="SourceGraphic" in2="BackgroundImageFix" result="shape"/><feColorMatrix in="SourceAlpha" result="hardAlpha" values="0 0 0 0 0 0 0 0 0 0 0 0 0 0 0 0 0 0 127 0"/><feOffset dx=".25" dy="-.25"/><feGaussianBlur stdDeviation=".2"/><feComposite in2="hardAlpha" k2="-1" k3="1" operator="arithmetic"/><feColorMatrix values="0 0 0 0 0.992157 0 0 0 0 0.658824 0 0 0 0 0.0705882 0 0 0 1 0"/><feBlend in2="shape" result="effect1_innerShadow_18_21332"/><feColorMatrix in="SourceAlpha" result="hardAlpha" values="0 0 0 0 0 0 0 0 0 0 0 0 0 0 0 0 0 0 127 0"/><feOffset dx="-.25" dy=".25"/><feGaussianBlur stdDeviation=".2"/><feComposite in2="hardAlpha" k2="-1" k3="1" operator="arithmetic"/><feColorMatrix values="0 0 0 0 1 0 0 0 0 0.8 0 0 0 0 0.290196 0 0 0 1 0"/><feBlend in2="effect1_innerShadow_18_21332" result="effect2_innerShadow_18_21332"/></filter></defs><g fill="none"><g filter="url(#a)"><path fill="url(#b)" d="M6.625 2H25a2 2 0 0 1 2 2v22H6.625z"/><path fill="url(#c)" d="M6.625 2H25a2 2 0 0 1 2 2v22H6.625z"/></g><path fill="url(#d)" d="M5.5 26.5H27V29h-.5l-.5.5H5.5z"/><path fill="url(#e)" d="M5.5 26.5H27V29h-.5l-.5.5H5.5z"/><path fill="url(#f)" d="M6.5 2A1.5 1.5 0 0 0 5 3.5V28h1a1 1 0 0 1 1-1h1V2z"/><g filter="url(#g)"><path fill="url(#h)" d="M6.5 26A1.5 1.5 0 0 0 5 27.5v1A1.5 1.5 0 0 0 6.5 30h19.408C26.56 30 27 29.666 27 29H7a1 1 0 1 1 0-2h20v-1z"/></g><defs><linearGradient id="b" x1="17.5" x2="17.5" y1="2" y2="26" gradientUnits="userSpaceOnUse"><stop stop-color="#56d1f3"/><stop offset="1" stop-color="#39adf1"/></linearGradient><linearGradient id="c" x1="27.156" x2="25.188" y1="5.531" y2="5.813" gradientUnits="userSpaceOnUse"><stop offset=".014" stop-color="#7fecff"/><stop offset="1" stop-color="#60deff" stop-opacity="0"/></linearGradient><linearGradient id="d" x1="6.721" x2="26.819" y1="28.416" y2="28.416" gradientUnits="userSpaceOnUse"><stop stop-color="#d5bceb"/><stop offset="1" stop-color="#dccced"/><stop offset="1" stop-color="#e3d3f2"/></linearGradient><linearGradient id="e" x1="16.25" x2="16.25" y1="26.738" y2="28.157" gradientUnits="userSpaceOnUse"><stop stop-color="#9f84ae"/><stop offset="1" stop-color="#c5b1d6" stop-opacity="0"/></linearGradient><linearGradient id="f" x1="5.205" x2="7.563" y1="16.738" y2="16.75" gradientUnits="userSpaceOnUse"><stop stop-color="#44a3d2"/><stop offset="1" stop-color="#3c8fcc"/></linearGradient><linearGradient id="h" x1="6.431" x2="27" y1="28.964" y2="28.932" gradientUnits="userSpaceOnUse"><stop stop-color="#3769c5"/><stop offset="1" stop-color="#3666c3"/></linearGradient><filter id="a" width="20.375" height="24.1" x="6.625" y="2" color-interpolation-filters="sRGB" filterUnits="userSpaceOnUse"><feFlood flood-opacity="0" result="BackgroundImageFix"/><feBlend in="SourceGraphic" in2="BackgroundImageFix" result="shape"/><feColorMatrix in="SourceAlpha" result="hardAlpha" values="0 0 0 0 0 0 0 0 0 0 0 0 0 0 0 0 0 0 127 0"/><feOffset dy=".1"/><feGaussianBlur stdDeviation=".25"/><feComposite in2="hardAlpha" k2="-1" k3="1" operator="arithmetic"/><feColorMatrix values="0 0 0 0 0.32549 0 0 0 0 0.807843 0 0 0 0 0.933333 0 0 0 1 0"/><feBlend in2="shape" result="effect1_innerShadow_18_20823"/></filter><filter id="g" width="22" height="4.1" x="5" y="26" color-interpolation-filters="sRGB" filterUnits="userSpaceOnUse"><feFlood flood-opacity="0" result="BackgroundImageFix"/><feBlend in="SourceGraphic" in2="BackgroundImageFix" result="shape"/><feColorMatrix in="SourceAlpha" result="hardAlpha" values="0 0 0 0 0 0 0 0 0 0 0 0 0 0 0 0 0 0 127 0"/><feOffset dy=".1"/><feGaussianBlur stdDeviation=".15"/><feComposite in2="hardAlpha" k2="-1" k3="1" operator="arithmetic"/><feColorMatrix values="0 0 0 0 0.168627 0 0 0 0 0.388235 0 0 0 0 0.74902 0 0 0 1 0"/><feBlend in2="shape" result="effect1_innerShadow_18_20823"/></filter></defs></g><g fill="none"><g filter="url(#i)" transform="translate(10.147 7.945)scale(.41097)"><circle cx="16" cy="16.414" r="10.875" fill="url(#j)" style="fill:url(#j)"/></g><g filter="url(#k)" transform="translate(10.147 7.945)scale(.41097)"><path fill="url(#l)" fill-rule="evenodd" d="M16 30.383c7.715 0 13.969-6.254 13.969-13.969S23.715 2.445 16 2.445 2.031 8.7 2.031 16.415c0 7.714 6.254 13.968 13.969 13.968m0-3.094c6.006 0 10.875-4.869 10.875-10.875S22.006 5.54 16 5.54 5.125 10.408 5.125 16.414 9.994 27.29 16 27.29" clip-rule="evenodd" style="fill:url(#l)"/></g><g filter="url(#m)" transform="translate(10.147 7.945)scale(.41097)"><path fill="#dc7b3c" fill-rule="evenodd" d="M9.913 11.315a.6.6 0 0 0-.278.507v.28a.5.5 0 0 0 .438.496v7.597h-.108a.7.7 0 0 0-.677.524l-.31 1.186a.5.5 0 0 0 .484.626h12.45a.5.5 0 0 0 .488-.612l-.272-1.181a.7.7 0 0 0-.683-.543h-.107v-7.6a.5.5 0 0 0 .422-.493v-.28a.6.6 0 0 0-.277-.507L16.1 7.89a.75.75 0 0 0-.806 0zm9.816 8.88v-7.593h-1.61v7.593zm-3.219 0v-7.593H14.9v7.593zm-3.219 0v-7.593h-1.609v7.593z" clip-rule="evenodd"/></g><g filter="url(#n)" transform="translate(10.147 7.945)scale(.41097)"><path fill="#ffc546" d="M9.948 11.54a.6.6 0 0 1 .277-.506l5.383-3.426a.75.75 0 0 1 .805 0l5.382 3.426a.6.6 0 0 1 .278.506v.28a.5.5 0 0 1-.5.5H10.448a.5.5 0 0 1-.5-.5z"/></g><path fill="url(#o)" d="M9.948 11.54a.6.6 0 0 1 .277-.506l5.383-3.426a.75.75 0 0 1 .805 0l5.382 3.426a.6.6 0 0 1 .278.506v.28a.5.5 0 0 1-.5.5H10.448a.5.5 0 0 1-.5-.5z" style="fill:url(#o)" transform="translate(10.147 7.945)scale(.41097)"/><path fill="url(#p)" d="M10.385 12.117a.25.25 0 0 1 .25-.25h1.11a.25.25 0 0 1 .25.25v8.016h-1.61z" style="fill:url(#p)" transform="translate(10.147 7.945)scale(.41097)"/><path fill="url(#q)" d="M10.385 12.117a.25.25 0 0 1 .25-.25h1.11a.25.25 0 0 1 .25.25v8.016h-1.61z" style="fill:url(#q)" transform="translate(10.147 7.945)scale(.41097)"/><path fill="url(#r)" d="M13.604 11.867h1.609v8.266h-1.609z" style="fill:url(#r)" transform="translate(10.147 7.945)scale(.41097)"/><path fill="url(#s)" d="M13.604 11.867h1.609v8.266h-1.609z" style="fill:url(#s)" transform="translate(10.147 7.945)scale(.41097)"/><path fill="url(#t)" d="M16.823 11.867h1.609v8.266h-1.609z" style="fill:url(#t)" transform="translate(10.147 7.945)scale(.41097)"/><path fill="url(#u)" d="M16.823 11.867h1.609v8.266h-1.609z" style="fill:url(#u)" transform="translate(10.147 7.945)scale(.41097)"/><path fill="url(#v)" d="M20.041 11.867h1.609v8.266h-1.609z" style="fill:url(#v)" transform="translate(10.147 7.945)scale(.41097)"/><path fill="url(#w)" d="M20.041 11.867h1.609v8.266h-1.609z" style="fill:url(#w)" transform="translate(10.147 7.945)scale(.41097)"/><g filter="url(#x)" transform="translate(10.147 7.945)scale(.41097)"><path fill="#ffc248" d="M9.6 20.437a.7.7 0 0 1 .678-.523h11.48a.7.7 0 0 1 .682.543l.273 1.18a.5.5 0 0 1-.488.613H9.775a.5.5 0 0 1-.484-.626Z"/></g></g></svg>